/* XPM */
static char *result[] = {
/* columns rows colors chars-per-pixel */
"64 64 159 2 ",
"   c #186FB5",
".  c #1870B6",
"X  c #1970B6",
"o  c #1871B7",
"O  c #1971B9",
"+  c #1972B9",
"@  c #1872BA",
"#  c #1973BB",
"$  c #1974BD",
"%  c #1A75BE",
"&  c #1A75BF",
"*  c #1A76C0",
"=  c #1A76C1",
"-  c #1B77C1",
";  c #1A78C2",
":  c #1978C4",
">  c #1A78C4",
",  c #1A79C4",
"<  c #1B79C4",
"1  c #1B7AC5",
"2  c #1A79C6",
"3  c #1B7AC6",
"4  c #1B7BC8",
"5  c #1C7BC8",
"6  c #1B7CCA",
"7  c #1B7DCB",
"8  c #1C7CCA",
"9  c #1C7DCB",
"0  c #1B7ECC",
"q  c #1B7FCF",
"w  c #1C7DCC",
"e  c #1C7ECC",
"r  c #1C7ECD",
"t  c #1C7FCD",
"y  c #1C7FCE",
"u  c #1C7FCF",
"i  c #1B80CF",
"p  c #1C80D0",
"a  c #1C81D0",
"s  c #1C80D1",
"d  c #1C81D1",
"f  c #1D81D1",
"g  c #1C82D2",
"h  c #1C82D3",
"j  c #1D82D3",
"k  c #1C83D4",
"l  c #1D83D5",
"z  c #1D83D6",
"x  c #1D84D5",
"c  c #1D84D6",
"v  c #1C85D7",
"b  c #1D85D7",
"n  c #1E84D7",
"m  c #1D85D8",
"M  c #1D85D9",
"N  c #1D86D9",
"B  c #1D86DA",
"V  c #1D87DA",
"C  c #1E86DA",
"Z  c #1E87DA",
"A  c #1E87DB",
"S  c #1E88DB",
"D  c #1E88DD",
"F  c #1F88DD",
"G  c #1E89DE",
"H  c #1E89DF",
"J  c #388DD0",
"K  c #3B91D6",
"L  c #1E8AE0",
"P  c #1E8AE1",
"I  c #1F8BE1",
"U  c #1E8BE2",
"Y  c #1F8CE2",
"T  c #1F8CE4",
"R  c #1E8DE5",
"E  c #1F8DE6",
"W  c #1F8EE6",
"Q  c #1F8FE6",
"!  c #1F8FE8",
"~  c #2090E9",
"^  c #2090EA",
"/  c #2091EB",
"(  c #2192EC",
")  c #2092ED",
"_  c #2093ED",
"`  c #2093EE",
"'  c #2193EE",
"]  c #2093EF",
"[  c #2193EF",
"{  c #2194EF",
"}  c #2093F0",
"|  c #2094F0",
" . c #2194F0",
".. c #2195F0",
"X. c #2094F1",
"o. c #2195F1",
"O. c #2096F1",
"+. c #2195F2",
"@. c #2195F3",
"#. c #2196F3",
"$. c #2197F3",
"%. c #58A0DA",
"&. c #58A2DD",
"*. c #58A3DD",
"=. c #58A3DE",
"-. c #58A3DF",
";. c #54A3E2",
":. c #7CB5E2",
">. c #7DB5E2",
",. c #7DB6E3",
"<. c #7CB6E4",
"1. c #7DB6E4",
"2. c #7DB7E5",
"3. c #7EB7E5",
"4. c #7DB7E6",
"5. c #7EB7E6",
"6. c #7DB9E9",
"7. c #7DB9EA",
"8. c #7DBAEA",
"9. c #7DBAEB",
"0. c #7DBBEC",
"q. c #7DBBED",
"w. c #87BDE8",
"e. c #87BEE9",
"r. c #87BEEA",
"t. c #87BEEB",
"y. c #88BEEA",
"u. c #88BFEB",
"i. c #8EC0E9",
"p. c #8EC1E9",
"a. c #8EC1EA",
"s. c #8EC1EB",
"d. c #8EC2EC",
"f. c #8EC3EC",
"g. c #8EC2ED",
"h. c #8EC3ED",
"j. c #95C7EE",
"k. c #95C7EF",
"l. c #8CC4F2",
"z. c #95C7F0",
"x. c #95C8F0",
"c. c #96CAF3",
"v. c #96CDF8",
"b. c #97CEF9",
"n. c #A1CFF4",
"m. c #A1D0F4",
"M. c #A1D0F5",
"N. c #ABD3F3",
"B. c #ACD3F3",
"V. c #ACD8FB",
"C. c #BEDDF6",
"Z. c #BEDEF8",
"A. c #C3E0F8",
"S. c #CBE4F9",
"D. c #DDEEFC",
"F. c #DDEEFD",
"G. c #DDEFFD",
"H. c white",
"J. c None",
/* pixels */
"J.J.J.$.#.#.#.#.#.#.#.#.#.#.#.#.#.#.#.#.#.#.#.#.#.#.#.#.#.#.#.#.#.#.#.#.#.#.#.#.#.#.#.#.#.#.#.#.#.#.#.#.#.#.#.#.#.#.#.#.#.J.J.J.",
"J.@.#.#.#.#.#.#.#.#.#.#.#.#.#.#.#.#.#.#.#.#.#.#.#.#.#.#.#.#.#.#.#.#.#.#.#.#.#.#.#.#.#.#.#.#.#.#.#.#.#.#.#.#.#.#.#.#.#.#.#.#.J.J.",
"J.#.#.#.#.#.#.#.#.#.#.#.#.#.#.#.#.#.#.#.#.#.#.#.#.#.#.#.#.#.#.#.#.#.#.#.#.#.#.#.#.#.#.#.#.#.#.#.#.#.#.#.#.#.#.#.#.#.#.#.#.#.#.J.",
"$.#.#.#.#.#.#.#.#.#.#.#.#.#.#.#.#.#.#.#.#.#.#.#.#.#.#.#.#.#.#.#.#.#.#.#.#.#.#.#.#.#.#.#.#.#.#.#.#.#.#.#.#.#.#.#.#.#.#.#.#.#.#.@.",
"#.#.#.#.#.#.#.#.#.#.#.#.#.#.#.#.#.#.#.#.#.#.#.#.#.#.#.#.#.#.#.#.#.#.#.#.#.#.#.#.#.#.#.#.#.#.#.#.#.#.#.#.#.#.#.#.#.#.#.#.#.#.#.#.",
"#.#.#.#.#.#.#.#.#.#.#.#.#.#.#.#.#.#.#.#.#.#.#.#.#.#.#.#.#.#.#.#.#.#.#.#.#.#.#.#.#.#.#.#.#.#.#.#.#.#.#.#.#.#.#.#.#.#.#.#.#.#.#.#.",
"#.#.#.#.#.#.#.#.#.#.#.#.#.#.#.#.#.#.#.#.#.#.#.#.#.#.#.#.#.#.#.#.#.#.#.#.#.#.#.#.#.#.#.#.#.#.#.#.#.#.#.#.#.#.#.#.#.#.#.#.#.#.#.#.",
"#.#.#.#.#.#.#.#.#.#.#.#.#.#.#.#.#.#.#.#.#.#.#.#.#.#.#.#.#.#.#.#.#.#.#.#.#.#.#.#.#.#.#.#.#.#.#.#.#.#.#.#.#.#.#.#.#.#.#.#.#.#.#.#.",
"#.#.#.#.#.#.#.#.#.#.#.#.#.#.#.#.#.#.#.#.#.#.#.#.#.#.#.#.#.#.#.#.#.#.#.#.#.#.#.#.#.#.#.#.#.#.#.#.#.#.#.#.#.#.#.#.#.#.#.#.#.#.#.#.",
"#.#.#.#.#.#.#.#.#.#.#.#.#.#.#.#.#.#.#.#.#.#.#.#.#.#.#.#.#.#.#.#.#.#.#.#.#.#.#.#.#.#.#.#.#.#.#.#.#.#.#.#.#.#.#.#.#.#.#.#.#.#.#.#.",
"#.#.#.#.#.#.#.#.#.#.#.#.#.#.#.#.#.#.#.#.#.#.#.#.#.#.#.#.#.#.#.#.#.#.#.#.#.#.#.#.#.#.#.#.#.#.#.#.#.#.#.#.#.#.#.#.#.#.#.#.#.#.#.#.",
"#.#.#.#.#.#.#.#.#.#.#.#.#.#.#.#.#.#.#.#.#.#.#.#.#.#.#.#.#.#.#.#.#.#.#.#.#.#.#.#.#.#.#.#.#.#.#.#.#.#.#.#.#.#.#.#.#.#.#.#.#.#.#.#.",
"#.#.#.#.#.#.#.#.#.#.#.#.#.#.#.#.#.#.#.#.#.#.#.#.#.#.#.#.#.#.#.#.#.#.#.#.#.#.#.#.#.#.#.#.#.#.#.#.#.#.#.#.#.#.#.#.#.#.#.#.#.#.#.#.",
"#.#.#.#.#.#.#.#.#.#.#.#.#.#.#.#.#.#.#.#.#.#.#.#.#.#.#.#.#.#.#.#.#.#.#.#.#.#.#.#.#.#.#.#.#.#.#.#.#.#.#.#.#.#.#.#.#.#.#.#.#.#.#.#.",
"#.#.#.#.#.#.#.#.#.#.#.#.#.#.#.#.#.#.#.#.#.#.#.#.#.#.#.#.#.#.#.#.#.#.#.#.#.#.#.#.#.#.#.#.#.#.#.#.#.#.#.#.#.#.#.#.#.#.#.#.#.#.#.#.",
"#.#.#.#.#.#.#.#.#.#.#.#.#.#.#.#.#.#.#.#.b.G.G.G.G.G.G.G.G.G.G.G.G.G.G.G.G.G.G.G.G.G.G.c.) #.#.#.#.#.#.#.#.#.#.#.#.#.#.#.#.#.#.#.",
"#.#.#.#.#.#.#.#.#.#.#.#.#.#.#.#.#.#.#.#.V.H.H.H.H.H.H.H.H.H.H.H.H.H.H.H.H.H.H.H.H.H.H.N.: ( #.#.#.#.#.#.#.#.#.#.#.#.#.#.#.#.#.#.",
"#.#.#.#.#.#.#.#.#.#.#.#.#.#.#.#.#.#.#.#.V.H.H.H.H.H.H.H.H.H.H.H.H.H.H.H.H.H.H.H.H.H.H.N.$ , ( #.#.#.#.#.#.#.#.#.#.#.#.#.#.#.#.#.",
"#.#.#.#.#.#.#.#.#.#.#.#.#.#.#.#.#.#.#.#.V.H.H.H.H.H.H.H.H.H.H.H.H.H.H.H.H.H.H.H.H.H.H.B.% & 3 ) #.#.#.#.#.#.#.#.#.#.#.#.#.#.#.#.",
"#.#.#.#.#.#.#.#.#.#.#.#.#.#.#.#.#.#.#.#.V.H.H.H.H.H.H.H.H.H.H.H.H.H.H.H.H.H.H.H.H.H.H.B.& * = 5 _ #.#.#.#.#.#.#.#.#.#.#.#.#.#.#.",
"#.#.#.#.#.#.#.#.#.#.#.#.#.#.#.#.#.#.#.#.V.H.H.H.H.H.H.H.H.H.H.H.H.H.H.H.H.H.H.H.H.H.H.B.* = - ; 8 ) #.#.#.#.#.#.#.#.#.#.#.#.#.#.",
"#.#.#.#.#.#.#.#.#.#.#.#.#.#.#.#.#.#.#.#.V.H.H.H.H.H.H.H.C.:.>.,.,.<.2.1.1.3.3.4.4.5.5.%.= - ; > < e ` #.#.#.#.#.#.#.#.#.#.#.#.#.",
"#.#.#.#.#.#.#.#.#.#.#.#.#.#.#.#.#.#.#.#.V.H.H.H.H.H.H.H.i.  . X o O + @ # # $ $ % & * = - ; > < 2 1 9 ) #.#.#.#.#.#.#.#.#.#.#.#.",
"#.#.#.#.#.#.#.#.#.#.#.#.#.#.#.#.#.#.#.#.V.H.H.H.H.H.H.H.p.. X o O + @ # # $ $ % & * = - ; > < 2 1 3 4 r ` #.#.#.#.#.#.#.#.#.#.#.",
"#.#.#.#.#.#.#.#.#.#.#.#.#.#.#.#.#.#.#.#.V.H.H.H.H.H.H.H.p.X o O + @ # # $ $ % & * = - ; > < 2 1 3 4 4 8 q ` #.#.#.#.#.#.#.#.#.#.",
"#.#.#.#.#.#.#.#.#.#.#.#.#.#.#.#.#.#.#.#.V.H.H.H.H.H.H.H.a.o O + @ # # $ $ % & * = - ; > < 2 1 3 4 4 8 6 7 d ' #.#.#.#.#.#.#.#.#.",
"#.#.#.#.#.#.#.#.#.#.#.#.#.#.#.#.#.#.#.#.V.H.H.H.H.H.H.H.a.O + @ # # $ $ % & * = - ; > < 2 1 3 4 4 8 6 7 w 0 g [ #.#.#.#.#.#.#.#.",
"#.#.#.#.#.#.#.#.#.#.#.#.#.#.#.#.#.#.#.#.V.H.H.H.H.H.H.H.s.+ @ # # $ $ % & * = - ; > < 2 1 3 4 4 8 6 7 w 0 t u h { #.#.#.#.#.#.#.",
"#.#.#.#.#.#.#.#.#.#.#.#.#.#.#.#.#.#.#.#.V.H.H.H.H.H.H.H.A.w.e.e.e.e.e.y.r.r.t.u.u.J 2 1 3 4 4 8 6 7 w 0 t u i s c ] #.#.#.#.#.#.",
"#.#.#.#.#.#.#.#.#.#.#.#.#.#.#.#.#.#.#.#.V.H.H.H.H.H.H.H.H.H.H.H.H.H.H.H.H.H.H.H.H.&.1 3 4 4 8 6 7 w 0 t u i s a d v { #.#.#.#.#.",
"#.#.#.#.#.#.#.#.#.#.#.#.#.#.#.#.#.#.#.#.V.H.H.H.H.H.H.H.H.H.H.H.H.H.H.H.H.H.H.H.H.*.3 4 4 8 6 7 w 0 t u i s a d h j m } #.#.#.#.",
"#.#.#.#.#.#.#.#.#.#.#.#.#.#.#.#.#.#.#.#.V.H.H.H.H.H.H.H.H.H.H.H.H.H.H.H.H.H.H.H.H.=.4 4 8 6 7 w 0 t u i s a d h j l z Z | #.#.#.",
"#.#.#.#.#.#.#.#.#.#.#.#.#.#.#.#.#.#.#.#.V.H.H.H.H.H.H.H.H.H.H.H.H.H.H.H.H.H.H.H.H.-.4 8 6 7 w 0 t u i s a d h j l z x n Z | #.#.",
"#.#.#.#.#.#.#.#.#.#.#.#.#.#.#.#.#.#.#.#.V.H.H.H.H.H.H.H.H.H.H.H.H.H.H.H.H.H.H.H.H.-.8 6 7 w 0 t u i s a d h j l z x n b M D X.#.",
"#.#.#.#.#.#.#.#.#.#.#.#.#.#.#.#.#.#.#.#.V.H.H.H.H.H.H.H.S.j.j.k.j.j.k.k.k.k.k.z.x.K 6 7 w 0 t u i s a d h j l z x n b M C V H  .",
"#.#.#.#.#.#.#.#.#.#.#.#.#.#.#.#.#.#.#.#.V.H.H.H.H.H.H.H.d.* = - ; > < 2 1 3 4 4 8 6 7 w 0 t u i s a d h j l z x n b M C V A S L ",
"#.#.#.#.#.#.#.#.#.#.#.#.#.#.#.#.#.#.#.#.V.H.H.H.H.H.H.H.d.= - ; > < 2 1 3 4 4 8 6 7 w 0 t u i s a d h j l z x n b M C V A S D G ",
"#.#.#.#.#.#.#.#.#.#.#.#.#.#.#.#.#.#.#.#.V.H.H.H.H.H.H.H.g.- ; > < 2 1 3 4 4 8 6 7 w 0 t u i s a d h j l z x n b M C V A S D G G ",
"#.#.#.#.#.#.#.#.#.#.#.#.#.#.#.#.#.#.#.#.V.H.H.H.H.H.H.H.f.; > < 2 1 3 4 4 8 6 7 w 0 t u i s a d h j l z x n b M C V A S D G G L ",
"#.#.#.#.#.#.#.#.#.#.#.#.#.#.#.#.#.#.#.#.V.H.H.H.H.H.H.H.h.> < 2 1 3 4 4 8 6 7 w 0 t u i s a d h j l z x n b M C V A S D G G L P ",
"#.#.#.#.#.#.#.#.#.#.#.#.#.#.#.#.#.#.#.#.V.H.H.H.H.H.H.H.h.< 2 1 3 4 4 8 6 7 w 0 t u i s a d h j l z x n b M C V A S D G G L P I ",
"#.#.#.#.#.#.#.#.#.#.#.#.#.#.#.#.#.#.#.#.V.H.H.H.H.H.H.H.h.2 1 3 4 4 8 6 7 w 0 t u i s a d h j l z x n b M C V A S D G G L P I U ",
"#.#.#.#.#.#.#.#.#.#.#.#.#.#.#.#.#.#.#.#.V.H.H.H.H.H.H.H.Z.6.6.6.6.7.7.8.8.8.9.9.9.q.0.;.h j l z x n b M C V A S D G G L P I U Y ",
"#.#.#.#.#.#.#.#.#.#.#.#.#.#.#.#.#.#.#.#.V.H.H.H.H.H.H.H.H.H.H.H.H.H.H.H.H.H.H.H.H.H.H.M.j l z x n b M C V A S D G G L P I U Y T ",
"#.#.#.#.#.#.#.#.#.#.#.#.#.#.#.#.#.#.#.#.V.H.H.H.H.H.H.H.H.H.H.H.H.H.H.H.H.H.H.H.H.H.H.m.l z x n b M C V A S D G G L P I U Y T R ",
"#.#.#.#.#.#.#.#.#.#.#.#.#.#.#.#.#.#.#.#.V.H.H.H.H.H.H.H.H.H.H.H.H.H.H.H.H.H.H.H.H.H.H.n.z x n b M C V A S D G G L P I U Y T R E ",
"#.#.#.#.#.#.#.#.#.#.#.#.#.#.#.#.#.#.#.#.V.H.H.H.H.H.H.H.H.H.H.H.H.H.H.H.H.H.H.H.H.H.H.M.x n b M C V A S D G G L P I U Y T R E W ",
"#.#.#.#.#.#.#.#.#.#.#.#.#.#.#.#.#.#.#.#.V.H.H.H.H.H.H.H.H.H.H.H.H.H.H.H.H.H.H.H.H.H.H.M.n b M C V A S D G G L P I U Y T R E W Q ",
"#.#.#.#.#.#.#.#.#.#.#.#.#.#.#.#.#.#.#.#.v.D.D.D.D.D.D.D.D.D.D.D.D.F.D.D.F.D.F.F.G.G.G.l.b M C V A S D G G L P I U Y T R E W Q ! ",
"#.#.#.#.#.#.#.#.#.#.#.#.#.#.#.#.#.#.#.#._ e 1 3 4 4 8 6 7 w 0 t u i s a d h j l z x n b M C V A S D G G L P I U Y T R E W Q ! ~ ",
"#.#.#.#.#.#.#.#.#.#.#.#.#.#.#.#.#.#.#.#.#.` e 4 4 8 6 7 w 0 t u i s a d h j l z x n b M C V A S D G G L P I U Y T R E W Q ! ~ ^ ",
"#.#.#.#.#.#.#.#.#.#.#.#.#.#.#.#.#.#.#.#.#.#.' y 8 6 7 w 0 t u i s a d h j l z x n b M C V A S D G G L P I U Y T R E W Q ! ~ ^ / ",
"#.#.#.#.#.#.#.#.#.#.#.#.#.#.#.#.#.#.#.#.#.#.#.[ p 7 w 0 t u i s a d h j l z x n b M C V A S D G G L P I U Y T R E W Q ! ~ ^ / / ",
"#.#.#.#.#.#.#.#.#.#.#.#.#.#.#.#.#.#.#.#.#.#.#.#.' f 0 t u i s a d h j l z x n b M C V A S D G G L P I U Y T R E W Q ! ~ ^ / / ( ",
"#.#.#.#.#.#.#.#.#.#.#.#.#.#.#.#.#.#.#.#.#.#.#.#.#.[ g u i s a d h j l z x n b M C V A S D G G L P I U Y T R E W Q ! ~ ^ / / ( ) ",
"#.#.#.#.#.#.#.#.#.#.#.#.#.#.#.#.#.#.#.#.#.#.#.#.#.#.{ k s a d h j l z x n b M C V A S D G G L P I U Y T R E W Q ! ~ ^ / / ( ) _ ",
"#.#.#.#.#.#.#.#.#.#.#.#.#.#.#.#.#.#.#.#.#.#.#.#.#.#.#.| c d h j l z x n b M C V A S D G G L P I U Y T R E W Q ! ~ ^ / / ( ) _ [ ",
"#.#.#.#.#.#.#.#.#.#.#.#.#.#.#.#.#.#.#.#.#.#.#.#.#.#.#.#.] b j l z x n b M C V A S D G G L P I U Y T R E W Q ! ~ ^ / / ( ) _ [ | ",
"#.#.#.#.#.#.#.#.#.#.#.#.#.#.#.#.#.#.#.#.#.#.#.#.#.#.#.#.#.| N z x n b M C V A S D G G L P I U Y T R E W Q ! ~ ^ / / ( ) _ [ |  .",
"#.#.#.#.#.#.#.#.#.#.#.#.#.#.#.#.#.#.#.#.#.#.#.#.#.#.#.#.#.#.| B n b M C V A S D G G L P I U Y T R E W Q ! ~ ^ / / ( ) _ [ |  .+.",
"#.#.#.#.#.#.#.#.#.#.#.#.#.#.#.#.#.#.#.#.#.#.#.#.#.#.#.#.#.#.#.X.Z M C V A S D G G L P I U Y T R E W Q ! ~ ^ / / ( ) _ [ |  .o...",
"J.#.#.#.#.#.#.#.#.#.#.#.#.#.#.#.#.#.#.#.#.#.#.#.#.#.#.#.#.#.#.#.| F V A S D G G L P I U Y T R E W Q ! ~ ^ / / ( ) _ [ |  .o.O.J.",
"J.J.#.#.#.#.#.#.#.#.#.#.#.#.#.#.#.#.#.#.#.#.#.#.#.#.#.#.#.#.#.#.#.o.H S D G G L P I U Y T R E W Q ! ~ ^ / / ( ) _ [ |  .o.O.J.J.",
"J.J.J.@.#.#.#.#.#.#.#.#.#.#.#.#.#.#.#.#.#.#.#.#.#.#.#.#.#.#.#.#.#.#. .L G G L P I U Y T R E W Q ! ~ ^ / / ( ) _ [ |  .+...J.J.J."
};
