/* XPM */
static char *result[] = {
/* columns rows colors chars-per-pixel */
"64 64 222 2 ",
"   c #1972B9",
".  c #1973BA",
"X  c #1973BB",
"o  c #1D75BB",
"O  c #1A73BC",
"+  c #1975BD",
"@  c #1A74BE",
"#  c #1A76BF",
"$  c #2679BD",
"%  c #267ABF",
"&  c #277ABF",
"*  c #1975C0",
"=  c #1A77C0",
"-  c #1A77C1",
";  c #1B77C2",
":  c #1A78C2",
">  c #1A78C3",
",  c #1A78C4",
"<  c #1B79C4",
"1  c #1A79C5",
"2  c #1B7AC4",
"3  c #1B79C6",
"4  c #1B7AC6",
"5  c #1B7AC7",
"6  c #1B7AC8",
"7  c #1B7BC8",
"8  c #1B7BC9",
"9  c #1B7CC8",
"0  c #1B7DCA",
"q  c #1B7DCB",
"w  c #1C7CCA",
"e  c #1C7DCB",
"r  c #1B7ECD",
"t  c #1C7ECC",
"y  c #1C7ECD",
"u  c #1C7FCE",
"i  c #1C7FCF",
"p  c #277CC0",
"a  c #267DC1",
"s  c #277DC2",
"d  c #277DC3",
"f  c #277FC3",
"g  c #207BC5",
"h  c #277EC4",
"j  c #277EC5",
"k  c #277FC6",
"l  c #287EC4",
"z  c #297FC4",
"x  c #2A7FC5",
"c  c #1C80CF",
"v  c #1E80CE",
"b  c #1C80D0",
"n  c #1C81D0",
"m  c #1C81D1",
"M  c #1D81D1",
"N  c #1C81D2",
"B  c #1D82D2",
"V  c #1C82D3",
"C  c #1D82D3",
"Z  c #1D82D4",
"A  c #1C83D4",
"S  c #1C83D5",
"D  c #1D83D5",
"F  c #1D83D6",
"G  c #1D84D6",
"H  c #1D85D7",
"J  c #1D84D8",
"K  c #1D85D8",
"L  c #1E86D9",
"P  c #1D86DA",
"I  c #1D87DB",
"U  c #1E87DB",
"Y  c #1E87DC",
"T  c #1D88DC",
"R  c #1E88DD",
"E  c #1E88DE",
"W  c #1E89DE",
"Q  c #1E89DF",
"!  c #1F89DF",
"~  c #1E8ADF",
"^  c #2980C4",
"/  c #2980C5",
"(  c #2981C7",
")  c #2A81C6",
"_  c #2780C9",
"`  c #2680CB",
"'  c #2382CF",
"]  c #2880C8",
"[  c #2880C9",
"{  c #2A81C8",
"}  c #2882C9",
"|  c #2882CA",
" . c #2A82CA",
".. c #2A83CA",
"X. c #2A84CA",
"o. c #2A84CB",
"O. c #2F84C8",
"+. c #2A85CE",
"@. c #2B86CE",
"#. c #2B86CF",
"$. c #2A87CF",
"%. c #3987C6",
"&. c #2688D7",
"*. c #2B88D2",
"=. c #2B88D3",
"-. c #2B89D4",
";. c #2C89D4",
":. c #2C8AD7",
">. c #2188DB",
",. c #2B8BD9",
"<. c #2C8BD8",
"1. c #2B8CD9",
"2. c #2C8DD9",
"3. c #2A8CDC",
"4. c #2C8EDC",
"5. c #3089D0",
"6. c #388DD1",
"7. c #3794DF",
"8. c #1E8AE0",
"9. c #1F8AE0",
"0. c #1F8BE0",
"q. c #1E8AE1",
"w. c #1E8BE1",
"e. c #1F8BE1",
"r. c #1E8BE2",
"t. c #1E8CE2",
"y. c #1F8CE2",
"u. c #1F8CE3",
"i. c #1F8CE4",
"p. c #1E8DE4",
"a. c #1F8DE4",
"s. c #1E8DE5",
"d. c #1F8DE5",
"f. c #1F8EE5",
"g. c #1F8DE6",
"h. c #1F8EE6",
"j. c #1F8EE7",
"k. c #1F8FE7",
"l. c #1F8FE8",
"z. c #1F90E8",
"x. c #1F91EA",
"c. c #208CE3",
"v. c #268FE2",
"b. c #208DE5",
"n. c #208FE6",
"m. c #208EE7",
"M. c #208FE9",
"N. c #2690E5",
"B. c #2692E7",
"V. c #2B90E1",
"C. c #2090E9",
"Z. c #2091EB",
"A. c #2692E8",
"S. c #2793EB",
"D. c #2795EB",
"F. c #2091EC",
"G. c #2092ED",
"H. c #2093EF",
"J. c #2193EF",
"K. c #2794ED",
"L. c #2795EE",
"P. c #2994EC",
"I. c #2195F1",
"U. c #2195F2",
"Y. c #2195F3",
"T. c #2096F2",
"R. c #2196F3",
"E. c #2197F3",
"W. c #2799F3",
"Q. c #2899F3",
"!. c #2E9CF4",
"~. c #309DF4",
"^. c #3EA2F2",
"/. c #4593D1",
"(. c #4898D8",
"). c #4C9EDF",
"_. c #52A0DE",
"`. c #64A7DC",
"'. c #52A7EA",
"]. c #58ACEF",
"[. c #67ABE2",
"{. c #6BB0E7",
"}. c #6FB4E9",
"|. c #74B1E2",
" X c #6CB7F2",
".X c #84BBE6",
"XX c #87BFEB",
"oX c #8BC2ED",
"OX c #93C6EE",
"+X c #8FC6F2",
"@X c #8CC7F6",
"#X c #A7D1F2",
"$X c #AFD5F3",
"%X c #AAD3F4",
"&X c #AFD7F8",
"*X c #B3D8F6",
"=X c #B1DAFA",
"-X c #C2E0F8",
";X c #C9E4F9",
":X c #CAE5FA",
">X c #CEE7FC",
",X c #D3E9FB",
"<X c #D6EAFB",
"1X c #DFEFFC",
"2X c #E0F0FC",
"3X c #E1F0FC",
"4X c #E1F0FD",
"5X c #E1F1FD",
"6X c #E3F1FD",
"7X c #E7F3FE",
"8X c #E7F4FD",
"9X c #ECF6FE",
"0X c #F1F8FE",
"qX c #F3F9FE",
"wX c #F5FAFE",
"eX c #F6FBFE",
"rX c #F8FCFF",
"tX c #FCFEFF",
"yX c #FDFEFF",
"uX c #FEFFFF",
"iX c white",
"pX c None",
/* pixels */
"pXpXpXE.R.R.R.R.R.R.R.R.R.R.R.R.R.R.R.R.R.R.R.R.R.R.R.R.R.R.R.R.R.R.R.R.R.R.R.R.R.R.R.R.R.R.R.R.R.R.R.R.R.R.R.R.R.R.R.R.R.pXpXpX",
"pXY.R.R.R.R.R.R.R.R.R.R.R.R.R.R.R.R.R.R.R.R.R.R.R.R.R.R.R.R.R.R.R.R.R.R.R.R.R.R.R.R.R.R.R.R.R.R.R.R.R.R.R.R.R.R.R.R.R.R.R.R.pXpX",
"pXR.R.R.R.R.R.R.R.R.R.R.R.R.R.R.R.R.R.R.R.R.R.R.R.R.R.R.R.R.R.R.R.R.R.R.R.R.R.R.R.R.R.R.R.R.R.R.R.R.R.R.R.R.R.R.R.R.R.R.R.R.R.pX",
"E.R.R.R.R.R.R.R.R.R.R.R.R.R.R.R.R.R.R.R.R.R.R.R.R.R.R.R.R.R.R.R.R.R.R.R.R.R.R.R.R.R.R.R.R.R.R.R.R.R.R.R.R.R.R.R.R.R.R.R.R.R.R.Y.",
"R.R.R.R.R.R.R.R.R.R.R.R.R.R.R.R.R.R.R.R.R.R.R.R.R.R.R.R.R.R.R.R.R.R.R.R.R.R.R.R.R.R.R.R.R.R.R.R.R.R.R.R.R.R.R.R.R.R.R.R.R.R.R.R.",
"R.R.R.R.R.R.R.R.R.R.R.R.R.R.R.R.R.R.R.R.R.R.R.R.R.R.R.R.R.R.R.R.R.R.R.R.R.R.R.R.R.R.R.R.R.R.R.R.R.R.R.R.R.R.R.R.R.R.R.R.R.R.R.R.",
"R.R.R.R.R.R.R.R.R.R.R.R.R.R.R.R.R.R.R.R.R.R.R.R.R.R.R.R.R.R.R.R.R.R.R.R.R.R.R.R.R.R.R.R.R.R.R.R.R.R.R.R.R.R.R.R.R.R.R.R.R.R.R.R.",
"R.R.R.R.R.R.R.R.R.R.R.R.R.R.R.R.R.R.R.R.R.R.R.R.R.R.R.R.R.R.R.R.R.R.R.R.R.R.R.R.R.R.R.R.R.R.R.R.R.R.R.R.R.R.R.R.R.R.R.R.R.R.R.R.",
"R.R.R.R.R.R.R.R.R.R.R.R.R.R.R.R.R.R.R.R.R.R.R.R.R.R.R.R.R.R.R.R.R.R.R.R.R.R.R.R.R.R.R.R.R.R.R.R.R.R.R.R.R.R.R.R.R.R.R.R.R.R.R.R.",
"R.R.R.R.R.R.R.R.R.R.R.R.R.R.R.R.R.R.R.R.R.R.R.R.R.R.R.R.R.R.R.R.R.R.R.R.R.R.R.R.R.R.R.R.R.R.R.R.R.R.R.R.R.R.R.R.R.R.R.R.R.R.R.R.",
"R.R.R.R.R.R.R.R.R.R.R.R.R.R.R.R.R.R.R.R.R.R.R.R.R.R.R.R.R.R.R.R.R.R.R.R.R.R.R.R.R.R.R.R.R.R.R.R.R.R.R.R.R.R.R.R.R.R.R.R.R.R.R.R.",
"R.R.R.R.R.R.R.R.R.R.R.R.R.R.R.R.R.R.R.R.R.R.R.R.R.R.R.R.R.R.R.R.R.R.R.R.R.R.R.R.R.R.R.R.R.R.R.R.R.R.R.R.R.R.R.R.R.R.R.R.R.R.R.R.",
"R.R.R.R.R.R.R.R.R.R.R.R.R.R.R.R.R.R.R.R.R.R.R.R.R.R.R.R.R.R.R.R.R.R.R.R.R.R.R.R.R.R.R.R.R.R.R.R.R.R.R.R.R.R.R.R.R.R.R.R.R.R.R.R.",
"R.R.R.R.R.R.R.R.R.R.R.R.R.R.R.R.R.R.R.R.R.R.R.R.R.R.R.R.R.R.R.R.R.R.R.R.R.R.R.R.R.R.R.R.R.R.R.R.R.R.R.R.R.R.R.R.R.R.R.R.R.R.R.R.",
"R.R.R.R.R.R.R.R.R.R.R.R.R.R.R.R.R.R.R.R.R.R.R.R.R.R.R.R.R.R.R.R.R.R.R.R.R.R.R.R.R.R.R.R.R.R.R.R.R.R.R.R.R.R.R.R.R.R.R.R.R.R.R.R.",
"R.R.R.R.R.R.R.R.R.R.R.R.R.R.R.R.R.!.5X5X5X5X5X5X5X5X].R.R.R.R.R.R.R.R.R.R.W.5X5X5X5X5X5X5X5XV.R.R.R.R.R.R.R.R.R.R.R.R.R.R.R.R.R.",
"R.R.R.R.R.R.R.R.R.R.R.R.R.R.R.R.R.~.iXiXiXiXiXiXiXiX<X>.R.R.R.R.R.R.R.R.R.Q.iXiXiXiXiXiXiXiXz U R.R.R.R.R.R.R.R.R.R.R.R.R.R.R.R.",
"R.R.R.R.R.R.R.R.R.R.R.R.R.R.R.R.R.~.iXiXiXiXiXiXiXiXiX|.Y R.R.R.R.R.R.R.R.Q.iXiXiXiXiXiXiXiXx + T R.R.R.R.R.R.R.R.R.R.R.R.R.R.R.",
"R.R.R.R.R.R.R.R.R.R.R.R.R.R.R.R.R.~.iXiXiXiXiXiXiXiXiX9Xf W R.R.R.R.R.R.R.Q.iXiXiXiXiXiXiXiX^ @ # R R.R.R.R.R.R.R.R.R.R.R.R.R.R.",
"R.R.R.R.R.R.R.R.R.R.R.R.R.R.R.R.R.~.iXiXiXiXiXiXiXiXiXiXOX: 9.R.R.R.R.R.R.Q.iXiXiXiXiXiXiXiX/ # * = Q R.R.R.R.R.R.R.R.R.R.R.R.R.",
"R.R.R.R.R.R.R.R.R.R.R.R.R.R.R.R.R.~.iXiXiXiXiXiXiXiXiXiXrX6.5 0.R.R.R.R.R.Q.iXiXiXiXiXiXiXiX) * = ; : 9.R.R.R.R.R.R.R.R.R.R.R.R.",
"R.R.R.R.R.R.R.R.R.R.R.R.R.R.R.R.R.~.iXiXiXiXiXiXiXiXiXiXiX*X7 q y.R.R.R.R.Q.iXiXiXiXiXiXiXiX( = ; : , 2 Q R.R.R.R.R.R.R.R.R.R.R.",
"R.R.R.R.R.R.R.R.R.R.R.R.R.R.R.R.R.~.iXiXiXiXiXiXiXiXiXiXiXiX_.e c s.R.R.R.Q.iXiXiXiXiXiXiXiX{ ; : , < 1 5 8.R.R.R.R.R.R.R.R.R.R.",
"R.R.R.R.R.R.R.R.R.R.R.R.R.R.R.R.R.~.iXiXiXiXiXiXiXiXiXiXiXiX,Xv n N g.R.R.Q.iXiXiXiXiXiXiXiX .: , < 1 4 4 8 0.R.R.R.R.R.R.R.R.R.",
"R.R.R.R.R.R.R.R.R.R.R.R.R.R.R.R.R.~.iXiXiXiXiXiXiXiXiXiXiXiXiX}.m Z F z.R.Q.iXiXiXiXiXiXiXiX.., < 1 4 4 7 9 e w.R.R.R.R.R.R.R.R.",
"R.R.R.R.R.R.R.R.R.R.R.R.R.R.R.R.R.~.iXiXiXiXiXiXiXiXiXiXiXiXiX8X&.F K L C.Q.iXiXiXiXiXiXiXiXo.< 1 4 4 7 9 w 0 t u.R.R.R.R.R.R.R.",
"R.R.R.R.R.R.R.R.R.R.R.R.R.R.R.R.R.~.iXiXiXiXiXiXiXiXiXiXiXiXiXiX+XK L U R K.iXiXiXiXiXiXiXiXX.1 4 4 7 9 w 0 e t u a.R.R.R.R.R.R.",
"R.R.R.R.R.R.R.R.R.R.R.R.R.R.R.R.R.~.iXiXiXiXiXiXiXiXuXiXiXiXiXiXeX7.U R 8.v.iXiXiXiXiXiXiXiXo.4 4 7 9 w 0 e t r u b s.R.R.R.R.R.",
"R.R.R.R.R.R.R.R.R.R.R.R.R.R.R.R.R.~.iXiXiXiXiXiXiXiX$XiXiXiXiXiXiX&XR 8.e.N.iXiXiXiXiXiXiXiX+.4 7 9 w 0 e t r u i b B b.R.R.R.R.",
"R.R.R.R.R.R.R.R.R.R.R.R.R.R.R.R.R.~.iXiXiXiXiXiXiXiX%.0XiXiXiXiXiXuX'.9.u.B.iXiXiXiXiXiXiXiX@.7 9 w 0 e t r u i b m M A f.R.R.R.",
"R.R.R.R.R.R.R.R.R.R.R.R.R.R.R.R.R.~.iXiXiXiXiXiXiXiX$ .XiXiXiXiXiXiX>Xc.h.A.iXiXiXiXiXiXiXiX+.9 w 0 e t r u i b m M V C S n.R.R.",
"R.R.R.R.R.R.R.R.R.R.R.R.R.R.R.R.R.~.iXiXiXiXiXiXiXiX& o 1XiXiXiXiXiXiX Xj.S.iXiXiXiXiXiXiXiX@.w 0 e t r u i b m M V C S D G j.R.",
"R.R.R.R.R.R.R.R.R.R.R.R.R.R.R.R.R.~.iXiXiXiXiXiXiXiX%   `.iXiXiXiXiXiX7XP.D.iXiXiXiXiXiXiXiX#.0 e t r u i b m M V C S D G H J l.",
"R.R.R.R.R.R.R.R.R.R.R.R.R.R.R.R.R.~.iXiXiXiXiXiXiXiXp   X -XiXiXiXiXiXiX@XL.iXiXiXiXiXiXiXiX$.e t r u i b m M V C S D G H J L P ",
"R.R.R.R.R.R.R.R.R.R.R.R.R.R.R.R.R.~.iXiXiXiXiXiXiXiXp X . /.tXiXiXiXiXiXwX^.iXiXiXiXiXiXiXiX*.t r u i b m M V C S D G H J L P I ",
"R.R.R.R.R.R.R.R.R.R.R.R.R.R.R.R.R.~.iXiXiXiXiXiXiXiXa . O + #XiXiXiXiXiXiX=XiXiXiXiXiXiXiXiX*.r u i b m M V C S D G H J L P I Y ",
"R.R.R.R.R.R.R.R.R.R.R.R.R.R.R.R.R.~.iXiXiXiXiXiXiXiXs O + @ O.qXiXiXiXiXiXuXiXiXiXiXiXiXiXiX=.u i b m M V C S D G H J L P I Y T ",
"R.R.R.R.R.R.R.R.R.R.R.R.R.R.R.R.R.~.iXiXiXiXiXiXiXiXd + @ # * XXiXiXiXiXiXiXiXiXiXiXiXiXiXiX=.i b m M V C S D G H J L P I Y T E ",
"R.R.R.R.R.R.R.R.R.R.R.R.R.R.R.R.R.~.iXiXiXiXiXiXiXiXh @ # * = g 2XiXiXiXiXiXiXiXiXiXiXiXiXiX;.b m M V C S D G H J L P I Y T E W ",
"R.R.R.R.R.R.R.R.R.R.R.R.R.R.R.R.R.~.iXiXiXiXiXiXiXiXh # * = ; : [.iXiXiXiXiXiXiXiXiXiXiXiXiX-.m M V C S D G H J L P I Y T E W ~ ",
"R.R.R.R.R.R.R.R.R.R.R.R.R.R.R.R.R.~.iXiXiXiXiXiXiXiXl * = ; : , < ;XiXiXiXiXiXiXiXiXiXiXiXiX:.M V C S D G H J L P I Y T E W ~ w.",
"R.R.R.R.R.R.R.R.R.R.R.R.R.R.R.R.R.~.iXiXiXiXiXiXiXiXj = ; : , < 1 (.yXiXiXiXiXiXiXiXiXiXiXiX:.V C S D G H J L P I Y T E W ~ w.0.",
"R.R.R.R.R.R.R.R.R.R.R.R.R.R.R.R.R.~.iXiXiXiXiXiXiXiXk ; : , < 1 4 4 %XiXiXiXiXiXiXiXiXiXiXiX,.C S D G H J L P I Y T E W ~ w.0.r.",
"R.R.R.R.R.R.R.R.R.R.R.R.R.R.R.R.R.~.iXiXiXiXiXiXiXiX] : , < 1 4 4 7 5.qXiXiXiXiXiXiXiXiXiXiX<.S D G H J L P I Y T E W ~ w.0.r.y.",
"R.R.R.R.R.R.R.R.R.R.R.R.R.R.R.R.R.~.iXiXiXiXiXiXiXiX_ , < 1 4 4 7 9 w oXiXiXiXiXiXiXiXiXiXiX1.D G H J L P I Y T E W ~ w.0.r.y.i.",
"R.R.R.R.R.R.R.R.R.R.R.R.R.R.R.R.R.~.iXiXiXiXiXiXiXiX[ < 1 4 4 7 9 w 0 ' 6XiXiXiXiXiXiXiXiXiX2.G H J L P I Y T E W ~ w.0.r.y.i.p.",
"R.R.R.R.R.R.R.R.R.R.R.R.R.R.R.R.R.~.iXiXiXiXiXiXiXiX} 1 4 4 7 9 w 0 e t {.iXiXiXiXiXiXiXiXiX4.H J L P I Y T E W ~ w.0.r.y.i.p.g.",
"R.R.R.R.R.R.R.R.R.R.R.R.R.R.R.R.R.~.iXiXiXiXiXiXiXiX| 4 4 7 9 w 0 e t r u :XiXiXiXiXiXiXiXiX4.J L P I Y T E W ~ w.0.r.y.i.p.g.n.",
"R.R.R.R.R.R.R.R.R.R.R.R.R.R.R.R.R.!.3X3X3X4X3X4X3X5X` 4 7 9 w 0 e t r u i ).5X5X5X5X5X5X5X5X3.L P I Y T E W ~ w.0.r.y.i.p.g.n.j.",
"R.R.R.R.R.R.R.R.R.R.R.R.R.R.R.R.R.R.! - ; : , < 1 4 4 7 9 w 0 e t r u i b m M V C S D G H J L P I Y T E W ~ w.0.r.y.i.p.g.n.j.z.",
"R.R.R.R.R.R.R.R.R.R.R.R.R.R.R.R.R.R.R.9.> , < 1 4 4 7 9 w 0 e t r u i b m M V C S D G H J L P I Y T E W ~ w.0.r.y.i.p.g.n.j.z.M.",
"R.R.R.R.R.R.R.R.R.R.R.R.R.R.R.R.R.R.R.R.q.< 1 4 4 7 9 w 0 e t r u i b m M V C S D G H J L P I Y T E W ~ w.0.r.y.i.p.g.n.j.z.M.x.",
"R.R.R.R.R.R.R.R.R.R.R.R.R.R.R.R.R.R.R.R.R.e.3 4 7 9 w 0 e t r u i b m M V C S D G H J L P I Y T E W ~ w.0.r.y.i.p.g.n.j.z.M.x.F.",
"R.R.R.R.R.R.R.R.R.R.R.R.R.R.R.R.R.R.R.R.R.R.e.6 9 w 0 e t r u i b m M V C S D G H J L P I Y T E W ~ w.0.r.y.i.p.g.n.j.z.M.x.F.Z.",
"R.R.R.R.R.R.R.R.R.R.R.R.R.R.R.R.R.R.R.R.R.R.R.t.w 0 e t r u i b m M V C S D G H J L P I Y T E W ~ w.0.r.y.i.p.g.n.j.z.M.x.F.Z.G.",
"R.R.R.R.R.R.R.R.R.R.R.R.R.R.R.R.R.R.R.R.R.R.R.R.u.e t r u i b m M V C S D G H J L P I Y T E W ~ w.0.r.y.i.p.g.n.j.z.M.x.F.Z.G.G.",
"R.R.R.R.R.R.R.R.R.R.R.R.R.R.R.R.R.R.R.R.R.R.R.R.R.a.y u i b m M V C S D G H J L P I Y T E W ~ w.0.r.y.i.p.g.n.j.z.M.x.F.Z.G.G.J.",
"R.R.R.R.R.R.R.R.R.R.R.R.R.R.R.R.R.R.R.R.R.R.R.R.R.R.d.c b m M V C S D G H J L P I Y T E W ~ w.0.r.y.i.p.g.n.j.z.M.x.F.Z.G.G.J.H.",
"R.R.R.R.R.R.R.R.R.R.R.R.R.R.R.R.R.R.R.R.R.R.R.R.R.R.R.s.B M V C S D G H J L P I Y T E W ~ w.0.r.y.i.p.g.n.j.z.M.x.F.Z.G.G.J.H.I.",
"R.R.R.R.R.R.R.R.R.R.R.R.R.R.R.R.R.R.R.R.R.R.R.R.R.R.R.R.h.A C S D G H J L P I Y T E W ~ w.0.r.y.i.p.g.n.j.z.M.x.F.Z.G.G.J.H.I.U.",
"R.R.R.R.R.R.R.R.R.R.R.R.R.R.R.R.R.R.R.R.R.R.R.R.R.R.R.R.R.g.S D G H J L P I Y T E W ~ w.0.r.y.i.p.g.n.j.z.M.x.F.Z.G.G.J.H.I.I.I.",
"pXR.R.R.R.R.R.R.R.R.R.R.R.R.R.R.R.R.R.R.R.R.R.R.R.R.R.R.R.R.m.G H J L P I Y T E W ~ w.0.r.y.i.p.g.n.j.z.M.x.F.Z.G.G.J.H.I.I.T.pX",
"pXpXR.R.R.R.R.R.R.R.R.R.R.R.R.R.R.R.R.R.R.R.R.R.R.R.R.R.R.R.R.k.J L P I Y T E W ~ w.0.r.y.i.p.g.n.j.z.M.x.F.Z.G.G.J.H.I.I.T.pXpX",
"pXpXpXY.R.R.R.R.R.R.R.R.R.R.R.R.R.R.R.R.R.R.R.R.R.R.R.R.R.R.R.R.z.P I Y T E W ~ w.0.r.y.i.p.g.n.j.z.M.x.F.Z.G.G.J.H.I.U.I.pXpXpX"
};
