/* XPM */
static char *result[] = {
/* columns rows colors chars-per-pixel */
"64 64 91 1 ",
"  c #186FB5",
". c #1870B6",
"X c #1973BB",
"o c #1F78BF",
"O c #1A77C1",
"+ c #1B79C5",
"@ c #1C7ECC",
"# c #267DC3",
"$ c #1C80CF",
"% c #1D83D4",
"& c #1D86DA",
"* c #1E89DE",
"= c #3383C5",
"- c #3A88C7",
"; c #2585D3",
": c #2887D3",
"> c #2189DB",
", c #318CD2",
"< c #318FDA",
"1 c #3491DB",
"2 c #3E95D9",
"3 c #1F8CE3",
"4 c #1F8FE8",
"5 c #1F90EA",
"6 c #208FE7",
"7 c #208FE8",
"8 c #2092EC",
"9 c #2196F3",
"0 c #2799F3",
"q c #2B9BF4",
"w c #359FF3",
"e c #3DA3F5",
"r c #4791CE",
"t c #4F96D1",
"y c #4C99D6",
"u c #5399D2",
"i c #57A3DF",
"p c #5CA3DC",
"a c #62A7DE",
"s c #64A8DE",
"d c #46A4EF",
"f c #4DA4E9",
"g c #56A5E4",
"h c #59AAEB",
"j c #46A6F3",
"k c #47A8F5",
"l c #48A9F5",
"z c #56AFF6",
"x c #5CB2F6",
"c c #61ABE6",
"v c #68ABE1",
"b c #6EB1E6",
"n c #72B1E3",
"m c #7FB8E7",
"M c #73B5EA",
"N c #7EBCEE",
"B c #67B7F7",
"V c #6EB7F2",
"C c #6CBAF7",
"Z c #72BCF7",
"A c #76BEF8",
"S c #7AC0F8",
"D c #81B8E4",
"F c #84BEED",
"G c #8FC3ED",
"H c #92C5EE",
"J c #85C1F1",
"K c #8BC7F6",
"L c #8CC9F9",
"P c #9DCDF2",
"I c #A7D0F1",
"U c #ACD6F6",
"Y c #A4D4FA",
"T c #A8D6FA",
"R c #B2D6F4",
"E c #B7DBF7",
"W c #B8DAF5",
"Q c #B4DBFA",
"! c #BDDEF8",
"~ c #BFE1FC",
"^ c #C2E1FA",
"/ c #CAE5FB",
"( c #D3EAFD",
") c #DBEEFC",
"_ c #DFF0FD",
"` c #E0EFFC",
"' c #E3F2FD",
"] c #ECF6FE",
"[ c #F4FAFE",
"{ c #FFFFFF",
"} c None",
/* pixels */
"}}}9999999999999999999999999999999999999999999999999999999999}}}",
"}9999999999999999999999999999999999999999999999999999999999999}}",
"}99999999999999999999999999999999999999999999999999999999999990}",
"9999999999999999999999999999999999999999999999999999999999999990",
"9999999999999999999999999999999999999999999999999999999999999999",
"9999999999999999999999999999999999999999999999999999999999999999",
"9999999999999999999999999999999999999999999999999999999999999999",
"9999999999999999999999999999999999999999999999999999999999999999",
"9999999999999999999999999999999999999999999999999999999999999999",
"9999999999999999999999999999999999999999999999999999999999999999",
"9999999999999999999999999999999999999999999999999999999999999999",
"9999999999999999999999999999999999999999999999999999999999999999",
"9999999999999999999999999999999999999999999999999999999999999999",
"9999999999999999999999999999999999999999999999999999999999999999",
"9999999999999999999999999999999999999999999999999999999999999999",
"999999999999999999999999999jAY^(_(/YSe99999999999999999999999999",
"9999999999999999999999990S({{{{{{{{{{{/B999999999999999999999999",
"99999999999999999999999z){{{{{{{{{{{{{{{/e9999999999999999999999",
"9999999999999999999999S[{{{{{{{{{{{{{{{{{]l999999999999999999999",
"999999999999999999999x{{{{{{{{{{{{{{{{{{{{'w99999999999999999999",
"99999999999999999999q'{{{{{{{{{{{{{{{{{{{{{U89999999999999999999",
"99999999999999999999S{{{{{{{{'Dt-rF]{{{{{{{{29999999999999999999",
"99999999999999999999~{{{{{{{WX ....='{{{{{{{G@899999999999999999",
"99999999999999999999'{{{{{{{= ......a{{{{{{{^O%89999999999999999",
"99999999999999999999]{{{{{{[ ....XXXO{{{{{{{_O+%5999999999999999",
"99999999999999999999){{{{{{{u...XXXXXvvvvvvvp+++%999999999999999",
"99999999999999999999Q{{{{{{{]r...XXXXOXOOOO+++++@$99999999999999",
"99999999999999999999B{{{{{{{{{I-XXOXXXOOOOOO@O++@@%9999999999999",
"999999999999999999990({{{{{{{{{{/n#XOOOOO+OO+++@@@+%599999999999",
"999999999999999999999l[{{{{{{{{{{{[RpOOOO++@++@+@@@$%99999999999",
"9999990999999999999999x[{{{{{{{{{{{{{)n#O++++$@@@@$@$%9999999999",
"99999999999999999999999l({{{{{{{{{{{{{{_i+++@++@@@@$%%3999999999",
"9999999999999999999999999J[{{{{{{{{{{{{{{H@@++$$$@$$$$%&59999999",
"99999999999999999999999998:m_{{{{{{{{{{{{{P++@+$+%@%$%%%*9999999",
"999999999999999999999999999%+iU[{{{{{{{{{{{b$+$@$$$%%%%%%&999999",
"9999999999999999999999999998&+@:M/{{{{{{{{{]:$$$@$$%%%&%%&*99999",
"99999999999999999999999999999&%%&&g/{{{{{{{{M@$@%$%%%%%%%&&39999",
"9999999999999999999xxxxxxxx999*%&*36~{{{{{{{E%@$$%%%%%&%&%&&*999",
"9999999999999999999'{{{{{{{:8993**36d{{{{{{{)@@%%%%%%%&%&&&**399",
"9999999999999999999({{{{{{{y%99933658{{{{{{{]%%$%%%%%%&&&&&***38",
"9999999999999999999Y{{{{{{{P+*999858w{{{{{{{)$%%%%%%&%&&&*&***33",
"9999999999999999999x{{{{{{{{h&399989Y{{{{{{{~%%%%%&&%&&&&***3*33",
"99999999999999999999){{{{{{{{EVjelC/{{{{{{{{N%%%%&&%&&&*******33",
"99999999999999999999x{{{{{{{{{{{{{{{{{{{{{{[1%%%%&%&&*&****33333",
"999999999999999999998L{{{{{{{{{{{{{{{{{{{{{N%%&%%&&&&&*****33333",
"9999999999999999999999K{{{{{{{{{{{{{{{{{{{P%%%%%&&&&*&****333333",
"99999999999999999999998h'{{{{{{{{{{{{{{{[F%%&%&&&&&&****3*333343",
"999999999999999999999999>v/{{{{{{{{{{{]P1%%%%&%&&&****3**6343437",
"99999999999999999999999993+<bP~/)(^UJg%%%%%%&%&&&&***3**6*633374",
"99999999999999999999999999*+$+@@+$$$$%%%%&%&%&&&&*****3336344747",
"909999999999999999999999999*+$$$%@$%%%%%%&%&&&&******33333337477",
"9999999999999999999999999999*$$$@%$$%%&%&%%&&**&***3333333474774",
"999999999999999999999999999993$$$$%%%%%%%%*&&******6*33643747789",
"999999999999999999999999999999*$%%$%%&&%&&&&&&***3*3333437477574",
"99999999999999999999999999999993%%%%%%&%&&*&******63337374784889",
"999999999999999999999999999999993%%%%&%&&&&***3333*6333747448885",
"9999999999999999999999999999999983%&%&&&*%****3>3333437478488898",
"99999999999999999999999999999999993&&&&&*****3*33337374774885889",
"999999999999999999999999999999999993&&&&******633343744758858899",
"9999999999999999999999999999999999993&*&**3*33*33437478488899989",
"99999999999999999999999999999999999994&3**333*334377785888885899",
"}99999999999999999999999999999999999995&*3>33634474785885899999}",
"}}99999999999999999999999999999999999985***3344374775888898999}}",
"}}}9999999999999999999999999999999999999833433364785588889998}}}"
};
