/* XPM */
static char *result[] = {
/* columns rows colors chars-per-pixel */
"64 64 110 2 ",
"   c #1974BD",
".  c #1A77C1",
"X  c #1B7AC6",
"o  c #1C7DCC",
"O  c #1C7FD0",
"+  c #227FC7",
"@  c #297DC0",
"#  c #257EC8",
"$  c #1C80CF",
"%  c #1C82D4",
"&  c #1D86DA",
"*  c #1E88DD",
"=  c #2880C7",
"-  c #2D84CA",
";  c #3286C9",
":  c #3089CF",
">  c #3B8ACA",
",  c #2286D5",
"<  c #2C89D2",
"1  c #208ADF",
"2  c #2F8FDB",
"3  c #3A8FD4",
"4  c #3894DE",
"5  c #1F8CE3",
"6  c #1F8FE8",
"7  c #1F91EB",
"8  c #208FE7",
"9  c #208FE9",
"0  c #2892E7",
"q  c #2092ED",
"w  c #2E96EA",
"e  c #3496E4",
"r  c #2196F3",
"t  c #2598F3",
"y  c #2C9BF4",
"u  c #339FF4",
"i  c #3BA2F4",
"p  c #4190D0",
"a  c #4A96D3",
"s  c #4D99D5",
"d  c #4098DD",
"f  c #4A99D9",
"g  c #5DA1D7",
"h  c #57A0DB",
"j  c #5BA2DA",
"k  c #60A6DF",
"l  c #65A8DE",
"z  c #449CE3",
"x  c #4F9FE0",
"c  c #47A1E9",
"v  c #4FA8EF",
"b  c #5DA7E2",
"n  c #5DADEC",
"m  c #41A5F5",
"M  c #4BA6F0",
"N  c #46A8F5",
"B  c #4DABF5",
"V  c #54AEF6",
"C  c #5DB1F4",
"Z  c #6AADE4",
"A  c #63AEE9",
"S  c #71AFE0",
"D  c #73B2E4",
"F  c #79B6E7",
"G  c #71B5EA",
"H  c #77B9EF",
"J  c #7FBCEC",
"K  c #62B5F7",
"L  c #6BB9F7",
"P  c #72BCF7",
"I  c #79BDF4",
"U  c #75BEF8",
"Y  c #7EC2F8",
"T  c #80B9E7",
"R  c #85BDE9",
"E  c #82BFF0",
"W  c #8FC4EE",
"Q  c #95C6ED",
"!  c #86C3F4",
"~  c #8DC5F1",
"^  c #82C4F8",
"/  c #8DC9F9",
"(  c #92C9F6",
")  c #9BCBF2",
"_  c #91CBF9",
"`  c #9ACFFA",
"'  c #9ED1FA",
"]  c #A3CFF3",
"[  c #A7D0F1",
"{  c #ABD4F4",
"}  c #A3D3FA",
"|  c #A8D5F8",
" . c #AED8FA",
".. c #B0D6F5",
"X. c #B5D8F5",
"o. c #B8DAF6",
"O. c #B2DAFA",
"+. c #BCDFFA",
"@. c #BFE0FB",
"#. c #C0DFF7",
"$. c #C4E2FA",
"%. c #CAE5FB",
"&. c #CEE8FC",
"*. c #D4EBFC",
"=. c #DAEDFC",
"-. c #E1F1FD",
";. c #EBF6FE",
":. c #F4F9FE",
">. c #FFFFFF",
",. c None",
/* pixels */
",.,.,.r r r r r r r r r r r r r r r r r r r r r r r r r r r r r r r r r r r r r r r r r r r r r r r r r r r r r r r r r r ,.,.,.",
",.r r r r r r r r r r r r r r r r r r r r r r r r r r r r r r r r r r r r r r r r r r r r r r r r r r r r r r r r r r r r r ,.,.",
",.r r r r r r r r r r r r r r r r r r r r r r r r r r r r r r r r r r r r r r r r r r r r r r r r r r r r r r r r r r r r r r ,.",
"r r r r r r r r r r r r r r r r r r r r r r r r r r r r r r r r r r r r r r r r r r r r r r r r r r r r r r r r r r r r r r r r ",
"r r r r r r r r r r r r r r r r r r r r r r r r r r r r r r r r r r r r r r r r r r r r r r r r r r r r r r r r r r r r r r r r ",
"r r r r r r r r r r r r r r r r r r r r r r r r r r r r r r r r r r r r r r r r r r r r r r r r r r r r r r r r r r r r r r r r ",
"r r r r r r r r r r r r r r r r r r r r r r r r r r r r r r r r r r r r r r r r r r r r r r r r r r r r r r r r r r r r r r r r ",
"r r r r r r r r r r r r r r r r r r r r r r r r r r r r r r r r r r r r r r r r r r r r r r r r r r r r r r r r r r r r r r r r ",
"r r r r r r r r r r r r r r r r r r r r r r r r r r r r r r r r r r r r r r r r r r r r r r r r r r r r r r r r r r r r r r r r ",
"r r r r r r r r r r r r r r r r r r r r r r r r r r r r r r r r r r r r r r r r r r r r r r r r r r r r r r r r r r r r r r r r ",
"r r r r r r r r r r r r r r r r r r r r r r r r r r r r r r r r r r r r r r r r r r r r r r r r r r r r r r r r r r r r r r r r ",
"r r r r r r r r r r r r r r r r r r r r r r r r r r r r r r r r r r r r r r r r r r r r r r r r r r r r r r r r r r r r r r r r ",
"r r r r r r r r r r r r r r r r r r r r r r r r r r r r r r r r r r r r r r r r r r r r r r r r r r r r r r r r r r r r r r r r ",
"r r r r r r r r r r r r r r r r r r r r r r r r r r r r r r r r r r r r r r r r r r r r r r r r r r r r r r r r r r r r r r r r ",
"r r r r r r r r r r r r r r r r r r r r r r r r r r r r r r r r r r r r r r r r r r r r r r r r r r r r r r r r r r r r r r r r ",
"r r r r r r r r r r r r =.-.-.-.-.-.-.-.e r r r r r r r / -.-.-.-.-.-.! r r r r r r r u -.-.-.-.-.-.-.=.5 r r r r r r r r r r r ",
"r r r r r r r r r r r r %.>.>.>.>.>.>.>.j & r r r r r r &.>.>.>.>.>.>.+.X r r r r r r C >.>.>.>.>.>.>.$.  & r r r r r r r r r r ",
"r r r r r r r r r r r r ` >.>.>.>.>.>.>.R   * r r r r t :.>.>.>.>.>.>.:.  o 7 r r r r ^ >.>.>.>.>.>.>.Q     & r r r r r r r r r ",
"r r r r r r r r r r r r L >.>.>.>.>.>.>...  . 5 q r r B >.>.>.>.>.>.>.>.p . $ r r r r  .>.>.>.>.>.>.>.l   .   * r r r r r r r r ",
"r r r r r r r r r r r r i >.>.>.>.>.>.>.=.. X X 8 r r ^ >.>.>.>.>.>.>.>.D . X % r r r =.>.>.>.>.>.>.>.;     . . * r r r r r r r ",
"r r r r r r r r r r r r r ;.>.>.>.>.>.>.>.= X o $ 8 r ..>.>.>.>.>.>.>.>.[ X X o % r r >.>.>.>.>.>.>.;.  . . . . . * r r r r r r ",
"r r r r r r r r r r r r r +.>.>.>.>.>.>.>.f o o $ $ 8 -.>.>.>.>.>.>.>.>.*.o o o % & N >.>.>.>.>.>.>.o.. .   . . X X 5 r r r r r ",
"r r r r r r r r r r r r r / >.>.>.>.>.>.>.G o o $ % 2 >.>.>.>.>.>.>.>.>.>.< o o % & G >.>.>.>.>.>.>.R   . . . X X X X 5 r r r r ",
"r r r r r r r r r r r r r C >.>.>.>.>.>.>.) o % % % A >.>.>.>.>.>.>.>.>.>.b O % % % ) >.>.>.>.>.>.>.j . . . X X X X X o 5 r r r ",
"r r r r r r r r r r r r r y >.>.>.>.>.>.>.$.$ % % % ( >.>.>.>.>.>.>.>.>.>.W % % % & $.>.>.>.>.>.>.>.# . . . X X X X o o o 5 r r ",
"r r r r r r r r r r r r r r =.>.>.>.>.>.>.:.% % 1 1 $.>.>.>.>.>.>.>.>.>.>.$.% % & & ;.>.>.>.>.>.>.=.. . X X X X X o X o o o 5 r ",
"r r r r r r r r r r r r r r  .>.>.>.>.>.>.>.4 & & 1 :.>.>.>.>.>.>.>.>.>.>.:., & & e >.>.>.>.>.>.>.[ . X X X X X o o o o o o o 6 ",
"r r r r r r r r r r r r r r Y >.>.>.>.>.>.>.A & * c >.>.>.>.>.>.>.>.>.>.>.>.z * * n >.>.>.>.>.>.>.F X X X X X o o X o o o o % $ ",
"r r r r r r r r r r r r r r B >.>.>.>.>.>.>.~ * 5 I >.>.>.>.>.>.>.>.>.>.>.>.H * & ! >.>.>.>.>.>.>.f . X X X o X o o o o % o % $ ",
"r r r r r r r r r r r r r r r >.>.>.>.>.>.>.O.5 8 | >.>.>.>.>.:.>.>.>.>.>.>.| 5 8  .>.>.>.>.>.>.:.o X X X o o o o o o o O % $ % ",
"r r r r r r r r r r r r r r r &.>.>.>.>.>.>.=.5 5 =.>.>.>.>.>.$.=.>.>.>.>.>.=.5 8 =.>.>.>.>.>.>.&.X X o o X o o o o o % o % % % ",
"r r r r r r r r r r r r r r r ' >.>.>.>.>.>.>.0 w >.>.>.>.>.>.Q [ >.>.>.>.>.>.w q >.>.>.>.>.>.>.) X X X o o o o o % % o % % % % ",
"r r r r r r r r r r r r r r r P >.>.>.>.>.>.>.M n >.>.>.>.>.>.g S >.>.>.>.>.>.n M >.>.>.>.>.>.>.Z X X o o o o o o % o % % % % % ",
"r r r r r r r r r r r r r r r m >.>.>.>.>.>.>.I ~ >.>.>.>.>.>.@ > >.>.>.>.>.>.( P >.>.>.>.>.>.>.3 o o o o o o % % o $ % % % % & ",
"r r r r r r r r r r r r r r r r ;.>.>.>.>.>.>.' #.>.>.>.>.>.*.    ;.>.>.>.>.>.$.` >.>.>.>.>.>.;.o o X o o O o % O $ % % % % & % ",
"r r r r r r r r r r r r r r r r $.>.>.>.>.>.>.&.;.>.>.>.>.>.[     X.>.>.>.>.>.:.%.>.>.>.>.>.>.+.X o o o o o % o % % % % & % & & ",
"r r r r r r r r r r r r r r r r / >.>.>.>.>.>.>.>.>.>.>.>.>.S     T >.>.>.>.>.>.>.>.>.>.>.>.>.W o o o O % o o % % % % % % % & & ",
"r r r r r r r r r r r r r r r r K >.>.>.>.>.>.>.>.>.>.>.>.>.>     a >.>.>.>.>.>.>.>.>.>.>.>.>.b o o o o o % % % % % & % & & & & ",
"r r r r r r r r r r r r r r r r u >.>.>.>.>.>.>.>.>.>.>.>.;.        :.>.>.>.>.>.>.>.>.>.>.>.>.< o o % $ % o % % % & % & & & & * ",
"r r r r r r r r r r r r r r r r r -.>.>.>.>.>.>.>.>.>.>.>.X.        $.>.>.>.>.>.>.>.>.>.>.>.-.o o $ o % % % % % % % & % & & & * ",
"r r r r r r r r r r r r r r r r r O.>.>.>.>.>.>.>.>.>.>.>.T       . Q >.>.>.>.>.>.>.>.>.>.>.{ o $ $ $ % % % % % & % & & & & * * ",
"r r r r r r r r r r r r r r r r r ^ >.>.>.>.>.>.>.>.>.>.>.s     .   h >.>.>.>.>.>.>.>.>.>.>.T % $ $ $ % % % % & & & & & & * * * ",
"r r r r r r r r r r r r r r r r r V >.>.>.>.>.>.>.>.>.>.>.+   . . . # >.>.>.>.>.>.>.>.>.>.>.x % $ $ % % % & & % & & & & * * * 5 ",
"r r r r r r r r r r r r r r r r r y >.>.>.>.>.>.>.>.>.>.$.    . . . X &.>.>.>.>.>.>.>.>.>.>., $ $ % % & % % & % & & & * * * * 5 ",
"r r r r r r r r r r r r r r r r r r *.>.>.>.>.>.>.>.>.>.Q   . . . X X ) >.>.>.>.>.>.>.>.>.*.$ $ % % & % % & & & & & * * * 5 * 5 ",
"r r r r r r r r r r r r r r r r r r } >.>.>.>.>.>.>.>.>.Z . . . . X X Z >.>.>.>.>.>.>.>.>.] % % % % % & & % & & & * * * 5 * 5 5 ",
"r r r r r r r r r r r r r r r r r r U >.>.>.>.>.>.>.>.>.= . . X X X X : >.>.>.>.>.>.>.>.>.G % % % & % & & & & & * * 5 * 5 5 5 5 ",
"r r r r r r r r r r r r r r r r r r N >.>.>.>.>.>.>.>.=.. X X X X X X o -.>.>.>.>.>.>.>.>.4 % % % % % & & & * * * * * 5 5 5 5 5 ",
"r r r r r r r r r r r r r r r r r r r =.-.-.-.-.-.-.-.Q . X X X X X X o ) -.-.-.-.-.-.-.=.& % % & & & & & * & * 5 * * 5 5 5 6 6 ",
"r r r r r r r r r r r r r r r r r r r 8         . . . X X X X X X o o o o o o o $ $ % % % % % & & % & & & * * * * 5 5 5 5 6 6 5 ",
"r r r r r r r r r r r r r r r r r r r r 5 .   . . . . X X X X o o o o o o % o % % $ % % % % & % & & & & * * * 5 5 5 5 5 5 5 6 6 ",
"r r r r r r r r r r r r r r r r r r r r r 9 . . . . . X X X X X o X o o o o $ $ $ % % % % & % & & & & * * * * * 5 5 5 6 7 6 6 6 ",
"r r r r r r r r r r r r r r r r r r r r r r 6 . X X X X X o X o X o o % o % O $ % % % % % & & & & & * * * 5 * 5 5 5 5 5 6 5 7 7 ",
"r r r r r r r r r r r r r r r r r r r r r r r 7 X X X X o X o o o o o o $ $ % % % % % & & % & & & * * * 5 * 5 5 9 5 6 q 6 7 7 q ",
"r r r r r r r r r r r r r r r r r r r r r r r r 8 X X X X X o o o o % o o % % % % % % & & & * & * * 5 * * 5 5 5 5 6 q 5 9 7 q q ",
"r r r r r r r r r r r r r r r r r r r r r r r r r 8 o X o o o o O O o % % % % % & & % & & & & & * * * 5 5 5 6 6 5 q 5 9 7 q 7 q ",
"r r r r r r r r r r r r r r r r r r r r r r r r r r 7 o o o o o O % % $ % % % % % & & & & & * * 5 * 5 5 5 5 6 5 9 6 8 7 q q q q ",
"r r r r r r r r r r r r r r r r r r r r r r r r r r r 7 $ o O o % o o % % % % & & % & & & * * * * * 5 8 5 6 5 8 6 9 7 q 7 q 7 r ",
"r r r r r r r r r r r r r r r r r r r r r r r r r r r r 7 o o % o % % % % % % & & & & & * * * 5 5 5 5 5 9 5 8 6 9 7 q q q q q r ",
"r r r r r r r r r r r r r r r r r r r r r r r r r r r r r 7 % % % % % % & & % & & & * * * * 5 * 5 5 5 6 5 q 6 9 7 q q q 7 q r r ",
"r r r r r r r r r r r r r r r r r r r r r r r r r r r r r r 7 % % % % % % & & & & & * * * 5 5 5 5 5 5 9 8 6 9 7 q q 7 q r 7 r r ",
",.r r r r r r r r r r r r r r r r r r r r r r r r r r r r r r 7 % % & & & % & & & * * * 5 * 5 5 5 5 5 q 6 9 7 q q 7 r q r r r ,.",
",.,.r r r r r r r r r r r r r r r r r r r r r r r r r r r r r r 7 % % % & & & & & * * 5 * 5 5 8 6 5 8 6 9 7 q q q 7 q r r r ,.,.",
",.,.,.r r r r r r r r r r r r r r r r r r r r r r r r r r r r r r 7 & & & & & * * * 5 * 5 5 5 6 5 8 6 9 7 7 q q q r r r q ,.,.,."
};
